<?xml version="1.0"?>
<svg width="256" height="256" xmlns="http://www.w3.org/2000/svg" xmlns:svg="http://www.w3.org/2000/svg" xmlns:xlink="http://www.w3.org/1999/xlink" version="1.1">
 <defs>
  <filter filterUnits="objectBoundingBox" height="100%" id="alpha" width="100%" x="0%" y="0%">
   <feColorMatrix in="SourceGraphic" type="matrix" values="0 0 0 0 1 0 0 0 0 1 0 0 0 0 1 0 0 0 1 0"/>
  </filter>
  <mask id="mask0">
   <g filter="url(#alpha)" id="svg_1">
    <rect fill="rgb(0%,0%,0%)" fill-opacity="0.99" height="256" id="svg_2" width="256" x="0" y="0"/>
   </g>
  </mask>
  <clipPath id="clip1">
   <rect height="256" id="svg_3" width="256" x="0" y="0"/>
  </clipPath>
  <g clip-path="url(#clip1)" id="surface5">
   <path d="m144.07,71.54c3.94,2.58 8.01,4.95 12.23,7.11c12.99,7.73 26.08,15.31 39.25,22.76c0.41,0.13 0.59,0.41 0.58,0.85c-3.13,2.22 -6.35,4.31 -9.68,6.26c-0.32,-2.02 -1.27,-3.68 -2.84,-4.98c-0.87,-0.43 -1.63,-1 -2.28,-1.71c-1.3,-0.33 -2.63,-0.51 -3.98,-0.57c-6.81,-7.3 -14.96,-12.6 -24.46,-15.93c-16.69,-5.49 -33.37,-5.49 -50.06,0c-9.5,3.33 -17.65,8.63 -24.47,15.93c-4.3,0.47 -6.95,2.79 -7.96,6.97c-3.4,-1.74 -6.52,-3.82 -9.39,-6.26c20.82,-12.06 41.68,-24.06 62.58,-35.98c3.31,-0.92 6.63,-0.92 9.96,0c3.54,1.8 7.05,3.65 10.52,5.55zm0,0" fill="rgb(1.176471%,38.823529%,69.019608%)" fill-rule="evenodd" id="svg_4"/>
  </g>
  <mask id="mask1">
   <g filter="url(#alpha)" id="svg_5">
    <rect fill="rgb(0%,0%,0%)" fill-opacity="0.19" height="256" id="svg_6" width="256" x="0" y="0"/>
   </g>
  </mask>
  <clipPath id="clip2">
   <rect height="256" id="svg_7" width="256" x="0" y="0"/>
  </clipPath>
  <g clip-path="url(#clip2)" id="surface8">
   <path d="m144.07,71.54c1.67,0.85 3.38,1.66 5.12,2.42c1.9,1.13 3.79,2.27 5.69,3.41c0.6,0.3 1.08,0.72 1.42,1.28c-4.22,-2.16 -8.29,-4.53 -12.23,-7.11zm0,0" fill="rgb(74.117647%,81.176471%,87.843137%)" fill-rule="evenodd" id="svg_8"/>
  </g>
  <mask id="mask2">
   <g filter="url(#alpha)" id="svg_9">
    <rect fill="rgb(0%,0%,0%)" fill-opacity="0.18" height="256" id="svg_10" width="256" x="0" y="0"/>
   </g>
  </mask>
  <clipPath id="clip3">
   <rect height="256" id="svg_11" width="256" x="0" y="0"/>
  </clipPath>
  <g clip-path="url(#clip3)" id="surface11">
   <path d="m144.07,71.54c-3.47,-1.9 -6.98,-3.75 -10.52,-5.55c-3.33,-0.92 -6.65,-0.92 -9.96,0c-20.9,11.92 -41.76,23.92 -62.58,35.98c-0.09,0 -0.19,0 -0.28,0c0.61,-0.74 1.27,-1.45 1.99,-2.13c18.36,-10.26 36.56,-20.79 54.61,-31.57c2.08,-1.26 4.26,-2.3 6.55,-3.13c1.95,-0.24 3.9,-0.48 5.83,-0.71c0.52,0.52 1.09,0.62 1.7,0.28c0.87,0.34 1.77,0.58 2.71,0.71c3.57,1.65 6.89,3.69 9.95,6.12zm0,0" fill="rgb(76.078431%,82.745098%,88.235294%)" fill-rule="evenodd" id="svg_12"/>
  </g>
  <mask id="mask3">
   <g filter="url(#alpha)" id="svg_13">
    <rect fill="rgb(0%,0%,0%)" fill-opacity="0.09" height="256" id="svg_14" width="256" x="0" y="0"/>
   </g>
  </mask>
  <clipPath id="clip4">
   <rect height="256" id="svg_15" width="256" x="0" y="0"/>
  </clipPath>
  <g clip-path="url(#clip4)" id="surface14">
   <path d="m156.3,78.65c0.39,-0.04 0.77,0 1.14,0.14c11.88,7.05 23.83,13.97 35.84,20.76c0.83,0.56 1.59,1.18 2.27,1.86c-13.17,-7.45 -26.26,-15.03 -39.25,-22.76zm0,0" fill="rgb(74.901961%,82.352941%,87.843137%)" fill-rule="evenodd" id="svg_16"/>
  </g>
  <mask id="mask4">
   <g filter="url(#alpha)" id="svg_17">
    <rect fill="rgb(0%,0%,0%)" fill-opacity="1" height="256" id="svg_18" width="256" x="0" y="0"/>
   </g>
  </mask>
  <clipPath id="clip5">
   <rect height="256" id="svg_19" width="256" x="0" y="0"/>
  </clipPath>
  <g clip-path="url(#clip5)" id="surface17">
   <path d="m196.13,102.26c0.39,0.13 0.58,0.42 0.56,0.85c0,5.6 0,11.19 0,16.78c-0.28,-1.84 -0.37,-3.74 -0.28,-5.69c-23.27,7.22 -43.65,19.17 -61.16,35.84c-2.32,-1.21 -4.51,-2.63 -6.54,-4.26c4.34,-2.64 8.61,-5.39 12.8,-8.25c3.33,-1.95 6.56,-4.03 9.67,-6.26c3.09,-1.68 6.03,-3.58 8.82,-5.69c2.64,-1.5 5.2,-3.11 7.68,-4.83c2.83,-1.7 5.58,-3.5 8.25,-5.41c3.37,-2.01 6.69,-4.1 9.95,-6.25c0.29,-0.1 0.48,-0.29 0.57,-0.57c3.33,-1.95 6.55,-4.04 9.68,-6.26zm0,0" fill="rgb(25.882353%,78.823529%,93.333333%)" fill-rule="evenodd" id="svg_20"/>
  </g>
  <mask id="mask5">
   <g filter="url(#alpha)" id="svg_21">
    <rect fill="rgb(0%,0%,0%)" fill-opacity="0.99" height="256" id="svg_22" width="256" x="0" y="0"/>
   </g>
  </mask>
  <clipPath id="clip6">
   <rect height="256" id="svg_23" width="256" x="0" y="0"/>
  </clipPath>
  <g clip-path="url(#clip6)" id="surface20">
   <path d="m60.73,101.97c0.09,0 0.19,0 0.28,0c2.87,2.44 5.99,4.52 9.39,6.26c0.26,0.61 0.64,0.7 1.14,0.29c-0.05,0.37 0.05,0.7 0.28,0.99c3,1.93 6.04,3.78 9.11,5.55c1.24,1.06 2.57,2.01 3.98,2.84c-11.36,17.52 -18.62,36.67 -21.76,57.46c-0.49,3.68 -0.92,7.28 -1.28,10.81c-0.64,-0.93 -1.07,-1.97 -1.28,-3.13c-0.14,-26.64 -0.19,-53.29 -0.14,-79.93c-0.02,-0.41 0.07,-0.79 0.28,-1.14zm0,0" fill="rgb(14.901961%,67.843137%,90.980392%)" fill-rule="evenodd" id="svg_24"/>
  </g>
  <mask id="mask6">
   <g filter="url(#alpha)" id="svg_25">
    <rect fill="rgb(0%,0%,0%)" fill-opacity="1" height="256" id="svg_26" width="256" x="0" y="0"/>
   </g>
  </mask>
  <clipPath id="clip7">
   <rect height="256" id="svg_27" width="256" x="0" y="0"/>
  </clipPath>
  <g clip-path="url(#clip7)" id="surface23">
   <path d="m84.91,117.9c1.37,0.93 2.79,1.78 4.26,2.56c1.52,1.04 3.04,2.09 4.55,3.13c-0.28,-0.02 -0.52,0.07 -0.71,0.29c-12.8,20.04 -19.67,41.94 -20.62,65.7c-1.8,0 -3.6,0 -5.4,0c-2.2,-0.43 -3.91,-1.57 -5.12,-3.41c0.36,-3.53 0.79,-7.13 1.28,-10.81c3.14,-20.79 10.4,-39.94 21.76,-57.46zm0,0" fill="rgb(11.764706%,66.27451%,90.980392%)" fill-rule="evenodd" id="svg_28"/>
  </g>
  <mask id="mask7">
   <g filter="url(#alpha)" id="svg_29">
    <rect fill="rgb(0%,0%,0%)" fill-opacity="1" height="256" id="svg_30" width="256" x="0" y="0"/>
   </g>
  </mask>
  <clipPath id="clip8">
   <rect height="256" id="svg_31" width="256" x="0" y="0"/>
  </clipPath>
  <g clip-path="url(#clip8)" id="surface26">
   <path d="m107.95,132.69c2.39,1.64 4.86,3.16 7.39,4.56c3.98,2.65 7.97,5.3 11.95,7.96c-1.48,1.71 -2.76,3.61 -3.84,5.69c-6.57,12.06 -10.22,24.96 -10.95,38.68c-7.78,0 -15.55,0 -23.33,0c1.09,-20.47 7.11,-39.34 18.06,-56.6c0.2,-0.21 0.43,-0.31 0.72,-0.29zm0,0" fill="rgb(8.627451%,62.352941%,89.803922%)" fill-rule="evenodd" id="svg_32"/>
  </g>
  <mask id="mask8">
   <g filter="url(#alpha)" id="svg_33">
    <rect fill="rgb(0%,0%,0%)" fill-opacity="0.31" height="256" id="svg_34" width="256" x="0" y="0"/>
   </g>
  </mask>
  <clipPath id="clip9">
   <rect height="256" id="svg_35" width="256" x="0" y="0"/>
  </clipPath>
  <g clip-path="url(#clip9)" id="surface29">
   <path d="m196.69,103.11c0.24,2.6 0.38,5.26 0.43,7.96c0.01,22.97 0.05,45.91 0.14,68.84c-0.05,2.36 -0.48,4.63 -1.28,6.83c-1.52,2.06 -3.55,3.2 -6.11,3.41c-40.35,-0.28 -80.74,-0.38 -121.18,-0.28c-0.63,0.08 -1.2,-0.01 -1.7,-0.29c1.8,0 3.6,0 5.4,0c5.59,0 11.19,0 16.78,0c7.78,0 15.55,0 23.33,0c7.77,0 15.55,0 23.32,0c9.11,0 18.21,0 27.31,0c9.2,0.05 18.39,0 27.59,-0.14c2.14,-0.5 3.75,-1.68 4.83,-3.56c0.41,-0.59 0.75,-1.25 1,-1.99c0.14,-4.45 0.19,-8.91 0.14,-13.37c0,-2.75 0,-5.5 0,-8.24c0,-2.47 0,-4.94 0,-7.4c0,-6.26 0,-12.52 0,-18.77c0,-5.41 0,-10.81 0,-16.22c0,-5.59 0,-11.18 0,-16.78zm0,0" fill="rgb(67.058824%,77.254902%,84.313725%)" fill-rule="evenodd" id="svg_36"/>
  </g>
  <mask id="mask9">
   <g filter="url(#alpha)" id="svg_37">
    <rect fill="rgb(0%,0%,0%)" fill-opacity="1" height="256" id="svg_38" width="256" x="0" y="0"/>
   </g>
  </mask>
  <clipPath id="clip10">
   <rect height="256" id="svg_39" width="256" x="0" y="0"/>
  </clipPath>
  <g clip-path="url(#clip10)" id="surface32">
   <path d="m127.29,145.21c0.51,0.11 0.98,0.3 1.42,0.57c2.03,1.63 4.22,3.05 6.54,4.26c2.23,1.73 4.6,3.25 7.11,4.55c0.58,0.58 1.25,1.05 2,1.43c1.85,1.16 3.65,2.39 5.4,3.69c-5.87,8.87 -9.18,18.64 -9.96,29.3c-1.45,-0.17 -2.78,0.02 -3.98,0.57c-7.77,0 -15.55,0 -23.32,0c0.73,-13.72 4.38,-26.62 10.95,-38.68c1.08,-2.08 2.36,-3.98 3.84,-5.69zm0,0" fill="rgb(5.882353%,60%,89.019608%)" fill-rule="evenodd" id="svg_40"/>
  </g>
  <mask id="mask10">
   <g filter="url(#alpha)" id="svg_41">
    <rect fill="rgb(0%,0%,0%)" fill-opacity="1" height="256" id="svg_42" width="256" x="0" y="0"/>
   </g>
  </mask>
  <clipPath id="clip11">
   <rect height="256" id="svg_43" width="256" x="0" y="0"/>
  </clipPath>
  <g clip-path="url(#clip11)" id="surface35">
   <path d="m196.41,150.9c-0.09,1.38 0,2.71 0.28,3.98c0,2.46 0,4.93 0,7.4c-0.27,-0.41 -0.36,-0.88 -0.28,-1.43c-6.86,1.73 -13.03,4.81 -18.49,9.25c-1.66,1.33 -3.18,2.79 -4.55,4.41c-1.4,-0.64 -2.73,-1.4 -3.98,-2.28c-1.41,-0.84 -2.74,-1.78 -3.98,-2.84c8.67,-8.85 19,-15.01 31,-18.49zm0,0" fill="rgb(13.333333%,69.803922%,89.803922%)" fill-rule="evenodd" id="svg_44"/>
  </g>
  <mask id="mask11">
   <g filter="url(#alpha)" id="svg_45">
    <rect fill="rgb(0%,0%,0%)" fill-opacity="0.99" height="256" id="svg_46" width="256" x="0" y="0"/>
   </g>
  </mask>
  <clipPath id="clip12">
   <rect height="256" id="svg_47" width="256" x="0" y="0"/>
  </clipPath>
  <g clip-path="url(#clip12)" id="surface38">
   <path d="m149.76,159.71c0.76,0.38 1.52,0.76 2.28,1.14c1.98,1.47 4.07,2.8 6.25,3.99c2.23,1.73 4.6,3.24 7.12,4.55c1.24,1.06 2.57,2 3.98,2.84c-3.65,4.97 -5.74,10.56 -6.26,16.78c1.23,-0.05 2.47,0 3.7,0.15c-1.29,0.05 -2.52,0.19 -3.7,0.42c-9.1,0 -18.2,0 -27.31,0c1.2,-0.55 2.53,-0.74 3.98,-0.57c0.78,-10.66 4.09,-20.43 9.96,-29.3zm0,0" fill="rgb(3.529412%,57.254902%,88.235294%)" fill-rule="evenodd" id="svg_48"/>
  </g>
  <mask id="mask12">
   <g filter="url(#alpha)" id="svg_49">
    <rect fill="rgb(0%,0%,0%)" fill-opacity="0.98" height="256" id="svg_50" width="256" x="0" y="0"/>
   </g>
  </mask>
  <clipPath id="clip13">
   <rect height="256" id="svg_51" width="256" x="0" y="0"/>
  </clipPath>
  <g clip-path="url(#clip13)" id="surface41">
   <path d="m196.69,162.28c0,2.74 0,5.49 0,8.24c-6.09,1.44 -11.21,4.47 -15.36,9.11c-2.75,-1.57 -5.4,-3.27 -7.96,-5.12c1.37,-1.62 2.89,-3.08 4.55,-4.41c5.46,-4.44 11.63,-7.52 18.49,-9.25c-0.08,0.55 0.01,1.02 0.28,1.43zm0,0" fill="rgb(10.588235%,67.843137%,89.019608%)" fill-rule="evenodd" id="svg_52"/>
  </g>
  <mask id="mask13">
   <g filter="url(#alpha)" id="svg_53">
    <rect fill="rgb(0%,0%,0%)" fill-opacity="0.99" height="256" id="svg_54" width="256" x="0" y="0"/>
   </g>
  </mask>
  <clipPath id="clip14">
   <rect height="256" id="svg_55" width="256" x="0" y="0"/>
  </clipPath>
  <g clip-path="url(#clip14)" id="surface44">
   <path d="m196.69,170.52c0.05,4.46 0,8.92 -0.14,13.37c-0.25,0.74 -0.59,1.4 -1,1.99c0.02,-0.12 -0.02,-0.22 -0.14,-0.28c-1.18,0.76 -2.46,0.99 -3.84,0.71c-3.53,-2.08 -6.95,-4.31 -10.24,-6.68c4.15,-4.64 9.27,-7.67 15.36,-9.11zm0,0" fill="rgb(8.235294%,65.882353%,88.235294%)" fill-rule="evenodd" id="svg_56"/>
  </g>
  <mask id="mask14">
   <g filter="url(#alpha)" id="svg_57">
    <rect fill="rgb(0%,0%,0%)" fill-opacity="0.99" height="256" id="svg_58" width="256" x="0" y="0"/>
   </g>
  </mask>
  <clipPath id="clip15">
   <rect height="256" id="svg_59" width="256" x="0" y="0"/>
  </clipPath>
  <g clip-path="url(#clip15)" id="surface47">
   <path d="m169.39,172.23c1.25,0.88 2.58,1.64 3.98,2.28c2.56,1.85 5.21,3.55 7.96,5.12c3.29,2.37 6.71,4.6 10.24,6.68c1.38,0.28 2.66,0.05 3.84,-0.71c0.12,0.06 0.16,0.16 0.14,0.28c-1.08,1.88 -2.69,3.06 -4.83,3.56c-9.2,0.14 -18.39,0.19 -27.59,0.14c1.18,-0.23 2.41,-0.37 3.7,-0.42c-1.23,-0.15 -2.47,-0.2 -3.7,-0.15c0.52,-6.22 2.61,-11.81 6.26,-16.78zm0,0" fill="rgb(1.568627%,54.901961%,87.45098%)" fill-rule="evenodd" id="svg_60"/>
  </g>
  <mask id="mask15">
   <g filter="url(#alpha)" id="svg_61">
    <rect fill="rgb(0%,0%,0%)" fill-opacity="0.17" height="256" id="svg_62" width="256" x="0" y="0"/>
   </g>
  </mask>
  <clipPath id="clip16">
   <rect height="256" id="svg_63" width="256" x="0" y="0"/>
  </clipPath>
  <g clip-path="url(#clip16)" id="surface50">
   <path d="m60.45,103.11c-0.05,26.64 0,53.29 0.14,79.93c0.21,1.16 0.64,2.2 1.28,3.13c1.21,1.84 2.92,2.98 5.12,3.41c0.5,0.28 1.07,0.37 1.7,0.29c0.19,0.18 0.38,0.38 0.57,0.57c-3.21,0.02 -5.82,-1.21 -7.82,-3.7c-0.71,-1.03 -1.08,-2.17 -1.14,-3.42c-0.23,-26.78 -0.19,-53.52 0.15,-80.21zm0,0" fill="rgb(70.588235%,77.254902%,80.392157%)" fill-rule="evenodd" id="svg_64"/>
  </g>
  <mask id="mask16">
   <g filter="url(#alpha)" id="svg_65">
    <rect fill="rgb(0%,0%,0%)" fill-opacity="0.29" height="256" id="svg_66" width="256" x="0" y="0"/>
   </g>
  </mask>
  <clipPath id="clip17">
   <rect height="256" id="svg_67" width="256" x="0" y="0"/>
  </clipPath>
  <g clip-path="url(#clip17)" id="surface53">
   <path d="m68.69,189.87c40.44,-0.1 80.83,0 121.18,0.28c-40.2,0.14 -80.4,0.24 -120.61,0.29c-0.19,-0.19 -0.38,-0.39 -0.57,-0.57zm0,0" fill="rgb(63.137255%,67.45098%,70.196078%)" fill-rule="evenodd" id="svg_68"/>
  </g>
 </defs>
 <g class="layer">
  <title>Layer 1</title>
  <g id="surface1">
   <use id="svg_69" mask="url(#mask0)" transform="matrix(1.77313 0 0 1.57932 -80.6271 -54.0178)" x="-11.21" xlink:href="#surface5" y="-9.69"/>
   <use id="svg_70" mask="url(#mask1)" transform="matrix(1.77313 0 0 1.57932 -80.6271 -54.0178)" x="-11.21" xlink:href="#surface8" y="-9.69"/>
   <path d="m230.09,102.06c-0.16,0.44 -0.5,0.74 -1.01,0.9c-1.01,-4.8 -4.04,-8.1 -9.06,-9.89c0.51,-0.19 0.51,-0.49 0,-0.9c-2.68,-0.44 -5.37,-0.6 -8.09,-0.46c-8.48,-0.39 -17.06,-0.77 -25.71,-1.12c-17.89,-11.42 -37.89,-17.04 -60.02,-16.85c-22.13,-0.19 -42.13,5.43 -60.02,16.85c-8.65,0.35 -17.23,0.73 -25.73,1.12c-1.86,-0.06 -3.71,0 -5.53,0.24c0.5,0.22 1.01,0.44 1.51,0.66c-5.43,1.39 -8.79,4.53 -10.09,9.44c-0.89,0.65 -1.56,0.51 -2.02,-0.46c1.79,-6.6 6.49,-10.27 14.11,-11.01c12.09,-11.53 26.54,-19.9 43.39,-25.16c29.59,-8.67 59.17,-8.67 88.76,0c16.84,5.26 31.3,13.63 43.37,25.16c2.39,0.09 4.75,0.38 7.06,0.9c1.15,1.12 2.5,2.02 4.04,2.7c2.78,2.05 4.47,4.67 5.04,7.87zm0,0" fill="rgb(1.176471%,37.254902%,67.45098%)" fill-rule="evenodd" id="svg_71"/>
   <use id="svg_72" mask="url(#mask2)" transform="matrix(1.77313 0 0 1.57932 -80.6271 -54.0178)" x="-11.21" xlink:href="#surface11" y="-9.69"/>
   <path d="m211.94,91.72c-57.15,-0.6 -114.31,-0.6 -171.48,0c8.49,-0.39 17.08,-0.77 25.73,-1.12c17.89,-11.42 37.89,-17.04 60.02,-16.85c22.13,-0.19 42.13,5.43 60.02,16.85c8.65,0.35 17.23,0.73 25.71,1.12zm0,0" fill="rgb(1.176471%,35.686275%,65.490196%)" fill-rule="evenodd" id="svg_73"/>
   <use id="svg_74" mask="url(#mask3)" transform="matrix(1.77313 0 0 1.57932 -80.6271 -54.0178)" x="-11.21" xlink:href="#surface14" y="-9.69"/>
   <path d="m211.94,91.72c2.71,-0.14 5.41,0.02 8.09,0.46c0.51,0.41 0.51,0.71 0,0.9c-61.19,-0.46 -122.38,-0.6 -183.59,-0.46c-0.5,-0.22 -1.01,-0.44 -1.51,-0.66c1.83,-0.24 3.67,-0.3 5.53,-0.24c57.17,-0.6 114.33,-0.6 171.48,0zm0,0" fill="rgb(0.784314%,32.941176%,61.176471%)" fill-rule="evenodd" id="svg_75"/>
   <path d="m36.43,92.62c61.21,-0.14 122.4,0 183.59,0.46c5.02,1.78 8.05,5.09 9.06,9.89c-5.78,3.4 -11.67,6.7 -17.64,9.87c-56.1,-11.81 -112.26,-11.96 -168.45,-0.44c-5.44,-2.8 -10.83,-5.72 -16.15,-8.77c-0.41,-0.46 -0.59,-0.98 -0.5,-1.56c1.29,-4.91 4.66,-8.05 10.09,-9.44zm0,0" fill="rgb(93.333333%,94.117647%,94.117647%)" fill-rule="evenodd" id="svg_76"/>
   <use id="svg_77" mask="url(#mask4)" transform="matrix(1.77313 0 0 1.57932 -80.6271 -54.0178)" x="-11.21" xlink:href="#surface17" y="-9.69"/>
   <use id="svg_78" mask="url(#mask5)" transform="matrix(1.77313 0 0 1.57932 -80.6271 -54.0178)" x="-11.21" xlink:href="#surface20" y="-9.69"/>
   <path d="m211.44,112.83c-4.73,3.02 -9.61,5.86 -14.63,8.54c-46.37,-9.95 -92.77,-10.09 -139.21,-0.46c-2.61,-1.23 -5.12,-2.57 -7.55,-4.04c-2.5,-1.31 -4.86,-2.81 -7.06,-4.49c56.19,-11.51 112.35,-11.37 168.45,0.44zm0,0" fill="rgb(90.980392%,91.372549%,91.764706%)" fill-rule="evenodd" id="svg_79"/>
   <path d="m248.25,120.02c0,8.54 0,17.07 0,25.62c-0.48,-0.79 -0.66,-1.69 -0.5,-2.7c0,-4.64 0,-9.29 0,-13.93c0,-1.34 0,-2.68 0,-4.04c-25.55,6.96 -49.08,17.37 -70.61,31.22c-8.65,5.99 -17.06,12.19 -25.23,18.64c-4.45,-2.05 -8.65,-4.45 -12.61,-7.19c31.05,-26.33 67.18,-45.2 108.44,-56.6c-0.16,3.08 0,6.08 0.5,8.99zm0,0" fill="rgb(23.529412%,77.254902%,92.54902%)" fill-rule="evenodd" id="svg_80"/>
   <path d="m196.81,121.38c-4.4,2.72 -8.94,5.26 -13.62,7.63c-37.29,-7.01 -74.61,-7.15 -111.97,-0.44c-1.91,-0.79 -3.76,-1.69 -5.55,-2.7c-2.68,-1.64 -5.37,-3.3 -8.07,-4.94c46.44,-9.63 92.84,-9.49 139.21,0.46zm0,0" fill="rgb(89.019608%,89.411765%,89.411765%)" fill-rule="evenodd" id="svg_81"/>
   <use id="svg_82" mask="url(#mask6)" transform="matrix(1.77313 0 0 1.57932 -80.6271 -54.0178)" x="-11.21" xlink:href="#surface23" y="-9.69"/>
   <path d="m247.75,129.01c-34.59,9.63 -64.86,25.58 -90.78,47.85c-0.48,0.21 -0.98,0.28 -1.51,0.22c-1.33,-0.6 -2.52,-1.34 -3.55,-2.26c8.17,-6.44 16.58,-12.65 25.23,-18.64c21.53,-13.85 45.06,-24.26 70.61,-31.22c0,1.36 0,2.7 0,4.04zm0,0" fill="rgb(21.568627%,76.078431%,92.156863%)" fill-rule="evenodd" id="svg_83"/>
   <path d="m65.67,125.86c1.79,1.01 3.63,1.91 5.55,2.7c4.95,3.33 10.18,6.32 15.64,8.99c1.21,1.06 2.55,1.96 4.04,2.68c-0.51,-0.03 -0.92,0.13 -1.28,0.46c-19.42,27.26 -30.09,57.06 -32.02,89.39c-9.91,0 -19.84,0 -29.75,0c1.68,-37.52 13.87,-72.11 36.56,-103.76c0.34,-0.35 0.76,-0.49 1.26,-0.46zm0,0" fill="rgb(10.196078%,64.705882%,90.196078%)" fill-rule="evenodd" id="svg_84"/>
   <path d="m183.19,129.01c-4.95,3.33 -10.16,6.33 -15.64,8.99c-26.85,-4.61 -53.76,-4.77 -80.7,-0.44c-5.46,-2.67 -10.69,-5.65 -15.64,-8.99c37.36,-6.71 74.68,-6.57 111.97,0.44zm0,0" fill="rgb(86.666667%,87.058824%,87.058824%)" fill-rule="evenodd" id="svg_85"/>
   <path d="m247.75,129.01c0,4.64 0,9.29 0,13.93c-30.23,8.21 -56.46,22.13 -78.67,41.77c-1.35,-0.6 -2.7,-1.2 -4.04,-1.8c-3.1,-2.05 -6.29,-4 -9.57,-5.83c0.53,0.06 1.03,-0.02 1.51,-0.22c25.92,-22.27 56.19,-38.22 90.78,-47.85zm0,0" fill="rgb(20.392157%,74.901961%,91.764706%)" fill-rule="evenodd" id="svg_86"/>
   <path d="m167.55,137.99c-5.51,3.52 -11.24,6.81 -17.15,9.89c-15.44,-2.05 -30.92,-2.2 -46.4,-0.44c-4.49,-2.21 -8.87,-4.61 -13.1,-7.2c-1.49,-0.73 -2.84,-1.63 -4.04,-2.68c26.93,-4.33 53.85,-4.17 80.7,0.44zm0,0" fill="rgb(84.313725%,84.313725%,84.705882%)" fill-rule="evenodd" id="svg_87"/>
   <use id="svg_88" mask="url(#mask7)" transform="matrix(1.77313 0 0 1.57932 -80.6271 -54.0178)" x="-11.21" xlink:href="#surface26" y="-9.69"/>
   <use id="svg_89" mask="url(#mask8)" transform="matrix(1.77313 0 0 1.57932 -80.6271 -54.0178)" x="-11.21" xlink:href="#surface29" y="-9.69"/>
   <path d="m150.41,147.88c-7.43,4.52 -15,8.86 -22.7,13.03c-0.78,-0.43 -1.61,-0.73 -2.52,-0.9c-7.06,-4.2 -14.13,-8.39 -21.19,-12.57c15.48,-1.75 30.96,-1.61 46.4,0.44zm0,0" fill="rgb(81.176471%,81.960784%,81.960784%)" fill-rule="evenodd" id="svg_90"/>
   <path d="m247.75,142.93c-0.16,1.01 0.02,1.91 0.5,2.7c0,9.87 0,19.76 0,29.64c-0.5,-2.01 -0.66,-4.11 -0.5,-6.29c0.16,-4.36 0,-8.7 -0.5,-13.03c-19.4,5.34 -37.06,13.5 -52.96,24.48c-4.66,3.63 -9.36,7.15 -14.13,10.57c-3.87,-1.88 -7.57,-3.98 -11.08,-6.3c22.22,-19.65 48.44,-33.56 78.67,-41.77zm0,0" fill="rgb(18.039216%,72.941176%,90.980392%)" fill-rule="evenodd" id="svg_91"/>
   <use id="svg_92" mask="url(#mask9)" transform="matrix(1.77313 0 0 1.57932 -80.6271 -54.0178)" x="-11.21" xlink:href="#surface32" y="-9.69"/>
   <path d="m247.75,168.99c-21.28,5.5 -39.59,15.22 -54.97,29.2c-4.47,-2.07 -8.67,-4.45 -12.62,-7.19c4.77,-3.41 9.47,-6.93 14.13,-10.57c15.9,-10.98 33.57,-19.14 52.96,-24.48c0.5,4.33 0.66,8.67 0.5,13.03zm0,0" fill="rgb(15.686275%,71.372549%,90.588235%)" fill-rule="evenodd" id="svg_93"/>
   <use id="svg_94" mask="url(#mask10)" transform="matrix(1.77313 0 0 1.57932 -80.6271 -54.0178)" x="-11.21" xlink:href="#surface35" y="-9.69"/>
   <use id="svg_95" mask="url(#mask11)" transform="matrix(1.77313 0 0 1.57932 -80.6271 -54.0178)" x="-11.21" xlink:href="#surface38" y="-9.69"/>
   <use id="svg_96" mask="url(#mask12)" transform="matrix(1.77313 0 0 1.57932 -80.6271 -54.0178)" x="-11.21" xlink:href="#surface41" y="-9.69"/>
   <use id="svg_97" mask="url(#mask13)" transform="matrix(1.77313 0 0 1.57932 -80.6271 -54.0178)" x="-11.21" xlink:href="#surface44" y="-9.69"/>
   <use id="svg_98" mask="url(#mask14)" transform="matrix(1.77313 0 0 1.57932 -80.6271 -54.0178)" x="-11.21" xlink:href="#surface47" y="-9.69"/>
   <use id="svg_99" mask="url(#mask15)" transform="matrix(1.77313 0 0 1.57932 -80.6271 -54.0178)" x="-11.21" xlink:href="#surface50" y="-9.69"/>
   <use id="svg_100" mask="url(#mask16)" transform="matrix(1.77313 0 0 1.57932 -80.6271 -54.0178)" x="-11.21" xlink:href="#surface53" y="-9.69"/>
  </g>
 </g>
</svg>