<svg id="Camada_1" data-name="Camada 1" xmlns="http://www.w3.org/2000/svg" xmlns:xlink="http://www.w3.org/1999/xlink" viewBox="0 0 193.69 171.98"><defs><style>.cls-1{fill:#c8ced5;}.cls-2{fill:url(#Gradiente_sem_nome_14);}.cls-3{fill:#565c63;}.cls-4{fill:url(#Gradiente_sem_nome_5);}.cls-5{fill:#44484b;}</style><linearGradient id="Gradiente_sem_nome_14" x1="96.55" y1="160.23" x2="96.55" y2="140.39" gradientUnits="userSpaceOnUse"><stop offset="0" stop-color="#9fa7af"/><stop offset="1" stop-color="#81898f"/></linearGradient><linearGradient id="Gradiente_sem_nome_5" x1="209.62" y1="318.76" x2="396.05" y2="449.51" gradientUnits="userSpaceOnUse"><stop offset="0" stop-color="#44e2e6"/><stop offset="1" stop-color="#1768a8"/></linearGradient></defs><title>My PC Windows 11</title><path class="cls-1" d="M340.93,471.32H262.85a14.1,14.1,0,0,0-3.22,1.86,13.88,13.88,0,0,0-3.88,4.74h92.79a6.44,6.44,0,0,0-.68-2.54C346.05,471.81,341.42,471.36,340.93,471.32Z" transform="translate(-206.06 -313.04)"/><rect class="cls-2" x="82.73" y="137.49" width="27.63" height="23.75"/><path class="cls-1" d="M399.75,317.77A7.4,7.4,0,0,0,394,313H211.46a5.52,5.52,0,0,0-5.4,4.73V445.55a7.43,7.43,0,0,0,1.43,2.62,7.81,7.81,0,0,0,4,2.45H394a6.36,6.36,0,0,0,5.75-5.07Z" transform="translate(-206.06 -313.04)"/><path class="cls-3" d="M399.75,320.06a7.37,7.37,0,0,0-2.14-3.07,7.48,7.48,0,0,0-3.61-1.67H211.46a5.52,5.52,0,0,0-5.4,4.74V447.83a7.43,7.43,0,0,0,1.43,2.62,7.74,7.74,0,0,0,4,2.45H394a6.34,6.34,0,0,0,3.46-1.35,6.49,6.49,0,0,0,2.29-3.72Z" transform="translate(-206.06 -313.04)"/><path class="cls-4" d="M397.38,322.26a7.18,7.18,0,0,0-2.08-3,7.33,7.33,0,0,0-3.53-1.61H213.46a5.58,5.58,0,0,0-3.39,1.22,5.42,5.42,0,0,0-1.9,3.35V445.64a7.24,7.24,0,0,0,1.41,2.53,7.61,7.61,0,0,0,3.88,2.37H391.77a6.4,6.4,0,0,0,3.38-1.31,6.29,6.29,0,0,0,2.23-3.59Z" transform="translate(-206.06 -313.04)"/><path class="cls-5" d="M348.54,483.66a1.57,1.57,0,0,1-.3.78,1.77,1.77,0,0,1-1.56.57H257.77a2,2,0,0,1-1.43-.47,2,2,0,0,1-.59-.88v-5.74h92.79Z" transform="translate(-206.06 -313.04)"/></svg>